<svg xmlns="http://www.w3.org/2000/svg" xmlns:xlink="http://www.w3.org/1999/xlink" width="1587" zoomAndPan="magnify" viewBox="0 0 1190.25 842.249979" height="1123" preserveAspectRatio="xMidYMid meet" version="1.0"><defs><clipPath id="d19a944c43"><path d="M 0.15625 0 L 1189.347656 0 L 1189.347656 841.5 L 0.15625 841.5 Z M 0.15625 0 " clip-rule="nonzero"/></clipPath><clipPath id="44e16c25cc"><path d="M 637 69 L 695 69 L 695 121.148438 L 637 121.148438 Z M 637 69 " clip-rule="nonzero"/></clipPath><clipPath id="dcebe565a6"><path d="M 748 69 L 807 69 L 807 121.148438 L 748 121.148438 Z M 748 69 " clip-rule="nonzero"/></clipPath><clipPath id="4e8140e1ea"><path d="M 859 69 L 918 69 L 918 121.148438 L 859 121.148438 Z M 859 69 " clip-rule="nonzero"/></clipPath><clipPath id="8d3b3447b0"><path d="M 971 69 L 1029 69 L 1029 121.148438 L 971 121.148438 Z M 971 69 " clip-rule="nonzero"/></clipPath><clipPath id="28f7319f9b"><path d="M 1090 69 L 1148 69 L 1148 121.148438 L 1090 121.148438 Z M 1090 69 " clip-rule="nonzero"/></clipPath><clipPath id="50cc25fb19"><path d="M 637 0 L 695 0 L 695 41.960938 L 637 41.960938 Z M 637 0 " clip-rule="nonzero"/></clipPath><clipPath id="57244d4957"><path d="M 748 0 L 807 0 L 807 41.960938 L 748 41.960938 Z M 748 0 " clip-rule="nonzero"/></clipPath><clipPath id="a44a1a58aa"><path d="M 859 0 L 918 0 L 918 41.960938 L 859 41.960938 Z M 859 0 " clip-rule="nonzero"/></clipPath><clipPath id="ca973814d6"><path d="M 971 0 L 1029 0 L 1029 41.960938 L 971 41.960938 Z M 971 0 " clip-rule="nonzero"/></clipPath><clipPath id="3be506721c"><path d="M 1090 0 L 1148 0 L 1148 41.960938 L 1090 41.960938 Z M 1090 0 " clip-rule="nonzero"/></clipPath><clipPath id="6fde9959e3"><path d="M 637 166 L 695 166 L 695 217.742188 L 637 217.742188 Z M 637 166 " clip-rule="nonzero"/></clipPath><clipPath id="094fa0fda1"><path d="M 748 166 L 807 166 L 807 217.742188 L 748 217.742188 Z M 748 166 " clip-rule="nonzero"/></clipPath><clipPath id="17edd559e6"><path d="M 859 166 L 918 166 L 918 217.742188 L 859 217.742188 Z M 859 166 " clip-rule="nonzero"/></clipPath><clipPath id="17a51404bd"><path d="M 971 166 L 1029 166 L 1029 217.742188 L 971 217.742188 Z M 971 166 " clip-rule="nonzero"/></clipPath><clipPath id="f32898899b"><path d="M 1090 166 L 1148 166 L 1148 217.742188 L 1090 217.742188 Z M 1090 166 " clip-rule="nonzero"/></clipPath><clipPath id="8442d6f069"><path d="M 637 275 L 695 275 L 695 327.195312 L 637 327.195312 Z M 637 275 " clip-rule="nonzero"/></clipPath><clipPath id="10f1e899e6"><path d="M 748 275 L 807 275 L 807 327.195312 L 748 327.195312 Z M 748 275 " clip-rule="nonzero"/></clipPath><clipPath id="d72a44f9c2"><path d="M 859 275 L 918 275 L 918 327.195312 L 859 327.195312 Z M 859 275 " clip-rule="nonzero"/></clipPath><clipPath id="b333b2cd64"><path d="M 971 275 L 1029 275 L 1029 327.195312 L 971 327.195312 Z M 971 275 " clip-rule="nonzero"/></clipPath><clipPath id="ccdee156a7"><path d="M 1090 275 L 1148 275 L 1148 327.195312 L 1090 327.195312 Z M 1090 275 " clip-rule="nonzero"/></clipPath><clipPath id="50566d5725"><path d="M 637 385 L 695 385 L 695 436.871094 L 637 436.871094 Z M 637 385 " clip-rule="nonzero"/></clipPath><clipPath id="9a591b31ad"><path d="M 748 385 L 807 385 L 807 436.871094 L 748 436.871094 Z M 748 385 " clip-rule="nonzero"/></clipPath><clipPath id="e8a5f7bf51"><path d="M 859 385 L 918 385 L 918 436.871094 L 859 436.871094 Z M 859 385 " clip-rule="nonzero"/></clipPath><clipPath id="1cb6510281"><path d="M 971 385 L 1029 385 L 1029 436.871094 L 971 436.871094 Z M 971 385 " clip-rule="nonzero"/></clipPath><clipPath id="62871a854c"><path d="M 1090 385 L 1148 385 L 1148 436.871094 L 1090 436.871094 Z M 1090 385 " clip-rule="nonzero"/></clipPath><clipPath id="cfc9693050"><path d="M 637 606 L 695 606 L 695 657.726562 L 637 657.726562 Z M 637 606 " clip-rule="nonzero"/></clipPath><clipPath id="8101fd8e65"><path d="M 748 606 L 807 606 L 807 657.726562 L 748 657.726562 Z M 748 606 " clip-rule="nonzero"/></clipPath><clipPath id="aedce8bac6"><path d="M 859 606 L 918 606 L 918 657.726562 L 859 657.726562 Z M 859 606 " clip-rule="nonzero"/></clipPath><clipPath id="caf4e45397"><path d="M 971 606 L 1029 606 L 1029 657.726562 L 971 657.726562 Z M 971 606 " clip-rule="nonzero"/></clipPath><clipPath id="c557bd42e2"><path d="M 1090 606 L 1148 606 L 1148 657.726562 L 1090 657.726562 Z M 1090 606 " clip-rule="nonzero"/></clipPath><clipPath id="ad6a6030b6"><path d="M 637 722 L 695 722 L 695 773.328125 L 637 773.328125 Z M 637 722 " clip-rule="nonzero"/></clipPath><clipPath id="7a1fc513eb"><path d="M 748 722 L 807 722 L 807 773.328125 L 748 773.328125 Z M 748 722 " clip-rule="nonzero"/></clipPath><clipPath id="a87a777df6"><path d="M 859 722 L 918 722 L 918 773.328125 L 859 773.328125 Z M 859 722 " clip-rule="nonzero"/></clipPath><clipPath id="916efac0bf"><path d="M 971 722 L 1029 722 L 1029 773.328125 L 971 773.328125 Z M 971 722 " clip-rule="nonzero"/></clipPath><clipPath id="85945aa8f0"><path d="M 1090 722 L 1148 722 L 1148 773.328125 L 1090 773.328125 Z M 1090 722 " clip-rule="nonzero"/></clipPath><clipPath id="63d7487c5b"><path d="M 637 806 L 695 806 L 695 841.5 L 637 841.5 Z M 637 806 " clip-rule="nonzero"/></clipPath><clipPath id="c7afaa0978"><path d="M 748 806 L 807 806 L 807 841.5 L 748 841.5 Z M 748 806 " clip-rule="nonzero"/></clipPath><clipPath id="03d4398ca9"><path d="M 859 806 L 918 806 L 918 841.5 L 859 841.5 Z M 859 806 " clip-rule="nonzero"/></clipPath><clipPath id="7b5b34c4a5"><path d="M 971 806 L 1029 806 L 1029 841.5 L 971 841.5 Z M 971 806 " clip-rule="nonzero"/></clipPath><clipPath id="057207b222"><path d="M 1090 806 L 1148 806 L 1148 841.5 L 1090 841.5 Z M 1090 806 " clip-rule="nonzero"/></clipPath></defs><g clip-path="url(#d19a944c43)"><path fill="#ffffff" d="M 0.15625 0 L 1189.347656 0 L 1189.347656 841.5 L 0.15625 841.5 Z M 0.15625 0 " fill-opacity="1" fill-rule="nonzero"/><path fill="#ffffff" d="M 0.15625 0 L 1189.347656 0 L 1189.347656 841.5 L 0.15625 841.5 Z M 0.15625 0 " fill-opacity="1" fill-rule="nonzero"/></g><g clip-path="url(#44e16c25cc)"><path fill="#c6302c" d="M 694.292969 82.535156 C 691.054688 66.050781 670.761719 65.777344 665.757812 81.1875 C 660.753906 65.777344 640.460938 66.050781 637.222656 82.535156 C 634.285156 97.488281 665.757812 121.082031 665.757812 121.082031 C 665.757812 121.082031 697.230469 97.488281 694.292969 82.535156 Z M 694.292969 82.535156 " fill-opacity="1" fill-rule="nonzero"/></g><g clip-path="url(#dcebe565a6)"><path fill="#c6302c" d="M 805.820312 82.535156 C 802.582031 66.050781 782.289062 65.777344 777.285156 81.1875 C 772.28125 65.777344 751.988281 66.050781 748.75 82.535156 C 745.8125 97.488281 777.285156 121.082031 777.285156 121.082031 C 777.285156 121.082031 808.757812 97.488281 805.820312 82.535156 Z M 805.820312 82.535156 " fill-opacity="1" fill-rule="nonzero"/></g><g clip-path="url(#4e8140e1ea)"><path fill="#c6302c" d="M 917.140625 82.535156 C 913.902344 66.050781 893.609375 65.777344 888.605469 81.1875 C 883.601562 65.777344 863.308594 66.050781 860.070312 82.535156 C 857.132812 97.488281 888.605469 121.082031 888.605469 121.082031 C 888.605469 121.082031 920.078125 97.488281 917.140625 82.535156 Z M 917.140625 82.535156 " fill-opacity="1" fill-rule="nonzero"/></g><g clip-path="url(#8d3b3447b0)"><path fill="#c6302c" d="M 1028.457031 82.535156 C 1025.21875 66.050781 1004.925781 65.777344 999.921875 81.1875 C 994.917969 65.777344 974.625 66.050781 971.390625 82.535156 C 968.453125 97.488281 999.921875 121.082031 999.921875 121.082031 C 999.921875 121.082031 1031.394531 97.488281 1028.457031 82.535156 Z M 1028.457031 82.535156 " fill-opacity="1" fill-rule="nonzero"/></g><g clip-path="url(#28f7319f9b)"><path fill="#c6302c" d="M 1147.683594 82.535156 C 1144.445312 66.050781 1124.152344 65.777344 1119.148438 81.1875 C 1114.144531 65.777344 1093.851562 66.050781 1090.613281 82.535156 C 1087.675781 97.488281 1119.148438 121.082031 1119.148438 121.082031 C 1119.148438 121.082031 1150.621094 97.488281 1147.683594 82.535156 Z M 1147.683594 82.535156 " fill-opacity="1" fill-rule="nonzero"/></g><g clip-path="url(#50cc25fb19)"><path fill="#c6302c" d="M 694.292969 3.347656 C 691.054688 -13.132812 670.761719 -13.410156 665.757812 2 C 660.753906 -13.410156 640.460938 -13.132812 637.222656 3.347656 C 634.285156 18.304688 665.757812 41.898438 665.757812 41.898438 C 665.757812 41.898438 697.230469 18.304688 694.292969 3.347656 Z M 694.292969 3.347656 " fill-opacity="1" fill-rule="nonzero"/></g><g clip-path="url(#57244d4957)"><path fill="#c6302c" d="M 805.820312 3.347656 C 802.582031 -13.132812 782.289062 -13.410156 777.285156 2 C 772.28125 -13.410156 751.988281 -13.132812 748.75 3.347656 C 745.8125 18.304688 777.285156 41.898438 777.285156 41.898438 C 777.285156 41.898438 808.757812 18.304688 805.820312 3.347656 Z M 805.820312 3.347656 " fill-opacity="1" fill-rule="nonzero"/></g><g clip-path="url(#a44a1a58aa)"><path fill="#c6302c" d="M 917.140625 3.347656 C 913.902344 -13.132812 893.609375 -13.410156 888.605469 2 C 883.601562 -13.410156 863.308594 -13.132812 860.070312 3.347656 C 857.132812 18.304688 888.605469 41.898438 888.605469 41.898438 C 888.605469 41.898438 920.078125 18.304688 917.140625 3.347656 Z M 917.140625 3.347656 " fill-opacity="1" fill-rule="nonzero"/></g><g clip-path="url(#ca973814d6)"><path fill="#c6302c" d="M 1028.457031 3.347656 C 1025.21875 -13.132812 1004.925781 -13.410156 999.921875 2 C 994.917969 -13.410156 974.625 -13.132812 971.390625 3.347656 C 968.453125 18.304688 999.921875 41.898438 999.921875 41.898438 C 999.921875 41.898438 1031.394531 18.304688 1028.457031 3.347656 Z M 1028.457031 3.347656 " fill-opacity="1" fill-rule="nonzero"/></g><g clip-path="url(#3be506721c)"><path fill="#c6302c" d="M 1147.683594 3.347656 C 1144.445312 -13.132812 1124.152344 -13.410156 1119.148438 2 C 1114.144531 -13.410156 1093.851562 -13.132812 1090.613281 3.347656 C 1087.675781 18.304688 1119.148438 41.898438 1119.148438 41.898438 C 1119.148438 41.898438 1150.621094 18.304688 1147.683594 3.347656 Z M 1147.683594 3.347656 " fill-opacity="1" fill-rule="nonzero"/></g><g clip-path="url(#6fde9959e3)"><path fill="#c6302c" d="M 694.292969 179.128906 C 691.054688 162.648438 670.761719 162.371094 665.757812 177.78125 C 660.753906 162.371094 640.460938 162.648438 637.222656 179.128906 C 634.285156 194.085938 665.757812 217.679688 665.757812 217.679688 C 665.757812 217.679688 697.230469 194.085938 694.292969 179.128906 Z M 694.292969 179.128906 " fill-opacity="1" fill-rule="nonzero"/></g><g clip-path="url(#094fa0fda1)"><path fill="#c6302c" d="M 805.820312 179.128906 C 802.582031 162.648438 782.289062 162.371094 777.285156 177.78125 C 772.28125 162.371094 751.988281 162.648438 748.75 179.128906 C 745.8125 194.085938 777.285156 217.679688 777.285156 217.679688 C 777.285156 217.679688 808.757812 194.085938 805.820312 179.128906 Z M 805.820312 179.128906 " fill-opacity="1" fill-rule="nonzero"/></g><g clip-path="url(#17edd559e6)"><path fill="#c6302c" d="M 917.140625 179.128906 C 913.902344 162.648438 893.609375 162.371094 888.605469 177.78125 C 883.601562 162.371094 863.308594 162.648438 860.070312 179.128906 C 857.132812 194.085938 888.605469 217.679688 888.605469 217.679688 C 888.605469 217.679688 920.078125 194.085938 917.140625 179.128906 Z M 917.140625 179.128906 " fill-opacity="1" fill-rule="nonzero"/></g><g clip-path="url(#17a51404bd)"><path fill="#c6302c" d="M 1028.457031 179.128906 C 1025.21875 162.648438 1004.925781 162.371094 999.921875 177.78125 C 994.917969 162.371094 974.625 162.648438 971.390625 179.128906 C 968.453125 194.085938 999.921875 217.679688 999.921875 217.679688 C 999.921875 217.679688 1031.394531 194.085938 1028.457031 179.128906 Z M 1028.457031 179.128906 " fill-opacity="1" fill-rule="nonzero"/></g><g clip-path="url(#f32898899b)"><path fill="#c6302c" d="M 1147.683594 179.128906 C 1144.445312 162.648438 1124.152344 162.371094 1119.148438 177.78125 C 1114.144531 162.371094 1093.851562 162.648438 1090.613281 179.128906 C 1087.675781 194.085938 1119.148438 217.679688 1119.148438 217.679688 C 1119.148438 217.679688 1150.621094 194.085938 1147.683594 179.128906 Z M 1147.683594 179.128906 " fill-opacity="1" fill-rule="nonzero"/></g><g clip-path="url(#8442d6f069)"><path fill="#c6302c" d="M 694.292969 288.582031 C 691.054688 272.097656 670.761719 271.824219 665.757812 287.234375 C 660.753906 271.824219 640.460938 272.097656 637.222656 288.582031 C 634.285156 303.539062 665.757812 327.128906 665.757812 327.128906 C 665.757812 327.128906 697.230469 303.539062 694.292969 288.582031 Z M 694.292969 288.582031 " fill-opacity="1" fill-rule="nonzero"/></g><g clip-path="url(#10f1e899e6)"><path fill="#c6302c" d="M 805.820312 288.582031 C 802.582031 272.097656 782.289062 271.824219 777.285156 287.234375 C 772.28125 271.824219 751.988281 272.097656 748.75 288.582031 C 745.8125 303.539062 777.285156 327.128906 777.285156 327.128906 C 777.285156 327.128906 808.757812 303.539062 805.820312 288.582031 Z M 805.820312 288.582031 " fill-opacity="1" fill-rule="nonzero"/></g><g clip-path="url(#d72a44f9c2)"><path fill="#c6302c" d="M 917.140625 288.582031 C 913.902344 272.097656 893.609375 271.824219 888.605469 287.234375 C 883.601562 271.824219 863.308594 272.097656 860.070312 288.582031 C 857.132812 303.539062 888.605469 327.128906 888.605469 327.128906 C 888.605469 327.128906 920.078125 303.539062 917.140625 288.582031 Z M 917.140625 288.582031 " fill-opacity="1" fill-rule="nonzero"/></g><g clip-path="url(#b333b2cd64)"><path fill="#c6302c" d="M 1028.457031 288.582031 C 1025.21875 272.097656 1004.925781 271.824219 999.921875 287.234375 C 994.917969 271.824219 974.625 272.097656 971.390625 288.582031 C 968.453125 303.539062 999.921875 327.128906 999.921875 327.128906 C 999.921875 327.128906 1031.394531 303.539062 1028.457031 288.582031 Z M 1028.457031 288.582031 " fill-opacity="1" fill-rule="nonzero"/></g><g clip-path="url(#ccdee156a7)"><path fill="#c6302c" d="M 1147.683594 288.582031 C 1144.445312 272.097656 1124.152344 271.824219 1119.148438 287.234375 C 1114.144531 271.824219 1093.851562 272.097656 1090.613281 288.582031 C 1087.675781 303.539062 1119.148438 327.128906 1119.148438 327.128906 C 1119.148438 327.128906 1150.621094 303.539062 1147.683594 288.582031 Z M 1147.683594 288.582031 " fill-opacity="1" fill-rule="nonzero"/></g><g clip-path="url(#50566d5725)"><path fill="#c6302c" d="M 694.292969 398.257812 C 691.054688 381.777344 670.761719 381.5 665.757812 396.910156 C 660.753906 381.5 640.460938 381.777344 637.222656 398.257812 C 634.285156 413.214844 665.757812 436.808594 665.757812 436.808594 C 665.757812 436.808594 697.230469 413.214844 694.292969 398.257812 Z M 694.292969 398.257812 " fill-opacity="1" fill-rule="nonzero"/></g><g clip-path="url(#9a591b31ad)"><path fill="#c6302c" d="M 805.820312 398.257812 C 802.582031 381.777344 782.289062 381.5 777.285156 396.910156 C 772.28125 381.5 751.988281 381.777344 748.75 398.257812 C 745.8125 413.214844 777.285156 436.808594 777.285156 436.808594 C 777.285156 436.808594 808.757812 413.214844 805.820312 398.257812 Z M 805.820312 398.257812 " fill-opacity="1" fill-rule="nonzero"/></g><g clip-path="url(#e8a5f7bf51)"><path fill="#c6302c" d="M 917.140625 398.257812 C 913.902344 381.777344 893.609375 381.5 888.605469 396.910156 C 883.601562 381.5 863.308594 381.777344 860.070312 398.257812 C 857.132812 413.214844 888.605469 436.808594 888.605469 436.808594 C 888.605469 436.808594 920.078125 413.214844 917.140625 398.257812 Z M 917.140625 398.257812 " fill-opacity="1" fill-rule="nonzero"/></g><g clip-path="url(#1cb6510281)"><path fill="#c6302c" d="M 1028.457031 398.257812 C 1025.21875 381.777344 1004.925781 381.5 999.921875 396.910156 C 994.917969 381.5 974.625 381.777344 971.390625 398.257812 C 968.453125 413.214844 999.921875 436.808594 999.921875 436.808594 C 999.921875 436.808594 1031.394531 413.214844 1028.457031 398.257812 Z M 1028.457031 398.257812 " fill-opacity="1" fill-rule="nonzero"/></g><g clip-path="url(#62871a854c)"><path fill="#c6302c" d="M 1147.683594 398.257812 C 1144.445312 381.777344 1124.152344 381.5 1119.148438 396.910156 C 1114.144531 381.5 1093.851562 381.777344 1090.613281 398.257812 C 1087.675781 413.214844 1119.148438 436.808594 1119.148438 436.808594 C 1119.148438 436.808594 1150.621094 413.214844 1147.683594 398.257812 Z M 1147.683594 398.257812 " fill-opacity="1" fill-rule="nonzero"/></g><path fill="#c6302c" d="M 694.292969 509.433594 C 691.054688 492.953125 670.761719 492.675781 665.757812 508.085938 C 660.753906 492.675781 640.460938 492.953125 637.222656 509.433594 C 634.285156 524.390625 665.757812 547.984375 665.757812 547.984375 C 665.757812 547.984375 697.230469 524.390625 694.292969 509.433594 Z M 694.292969 509.433594 " fill-opacity="1" fill-rule="nonzero"/><path fill="#c6302c" d="M 805.820312 509.433594 C 802.582031 492.953125 782.289062 492.675781 777.285156 508.085938 C 772.28125 492.675781 751.988281 492.953125 748.75 509.433594 C 745.8125 524.390625 777.285156 547.984375 777.285156 547.984375 C 777.285156 547.984375 808.757812 524.390625 805.820312 509.433594 Z M 805.820312 509.433594 " fill-opacity="1" fill-rule="nonzero"/><path fill="#c6302c" d="M 917.140625 509.433594 C 913.902344 492.953125 893.609375 492.675781 888.605469 508.085938 C 883.601562 492.675781 863.308594 492.953125 860.070312 509.433594 C 857.132812 524.390625 888.605469 547.984375 888.605469 547.984375 C 888.605469 547.984375 920.078125 524.390625 917.140625 509.433594 Z M 917.140625 509.433594 " fill-opacity="1" fill-rule="nonzero"/><path fill="#c6302c" d="M 1028.457031 509.433594 C 1025.21875 492.953125 1004.925781 492.675781 999.921875 508.085938 C 994.917969 492.675781 974.625 492.953125 971.390625 509.433594 C 968.453125 524.390625 999.921875 547.984375 999.921875 547.984375 C 999.921875 547.984375 1031.394531 524.390625 1028.457031 509.433594 Z M 1028.457031 509.433594 " fill-opacity="1" fill-rule="nonzero"/><path fill="#c6302c" d="M 1147.683594 509.433594 C 1144.445312 492.953125 1124.152344 492.675781 1119.148438 508.085938 C 1114.144531 492.675781 1093.851562 492.953125 1090.613281 509.433594 C 1087.675781 524.390625 1119.148438 547.984375 1119.148438 547.984375 C 1119.148438 547.984375 1150.621094 524.390625 1147.683594 509.433594 Z M 1147.683594 509.433594 " fill-opacity="1" fill-rule="nonzero"/><g clip-path="url(#cfc9693050)"><path fill="#c6302c" d="M 694.292969 619.113281 C 691.054688 602.628906 670.761719 602.351562 665.757812 617.761719 C 660.753906 602.351562 640.460938 602.628906 637.222656 619.113281 C 634.285156 634.066406 665.757812 657.660156 665.757812 657.660156 C 665.757812 657.660156 697.230469 634.066406 694.292969 619.113281 Z M 694.292969 619.113281 " fill-opacity="1" fill-rule="nonzero"/></g><g clip-path="url(#8101fd8e65)"><path fill="#c6302c" d="M 805.820312 619.113281 C 802.582031 602.628906 782.289062 602.351562 777.285156 617.761719 C 772.28125 602.351562 751.988281 602.628906 748.75 619.113281 C 745.8125 634.066406 777.285156 657.660156 777.285156 657.660156 C 777.285156 657.660156 808.757812 634.066406 805.820312 619.113281 Z M 805.820312 619.113281 " fill-opacity="1" fill-rule="nonzero"/></g><g clip-path="url(#aedce8bac6)"><path fill="#c6302c" d="M 917.140625 619.113281 C 913.902344 602.628906 893.609375 602.351562 888.605469 617.761719 C 883.601562 602.351562 863.308594 602.628906 860.070312 619.113281 C 857.132812 634.066406 888.605469 657.660156 888.605469 657.660156 C 888.605469 657.660156 920.078125 634.066406 917.140625 619.113281 Z M 917.140625 619.113281 " fill-opacity="1" fill-rule="nonzero"/></g><g clip-path="url(#caf4e45397)"><path fill="#c6302c" d="M 1028.457031 619.113281 C 1025.21875 602.628906 1004.925781 602.351562 999.921875 617.761719 C 994.917969 602.351562 974.625 602.628906 971.390625 619.113281 C 968.453125 634.066406 999.921875 657.660156 999.921875 657.660156 C 999.921875 657.660156 1031.394531 634.066406 1028.457031 619.113281 Z M 1028.457031 619.113281 " fill-opacity="1" fill-rule="nonzero"/></g><g clip-path="url(#c557bd42e2)"><path fill="#c6302c" d="M 1147.683594 619.113281 C 1144.445312 602.628906 1124.152344 602.351562 1119.148438 617.761719 C 1114.144531 602.351562 1093.851562 602.628906 1090.613281 619.113281 C 1087.675781 634.066406 1119.148438 657.660156 1119.148438 657.660156 C 1119.148438 657.660156 1150.621094 634.066406 1147.683594 619.113281 Z M 1147.683594 619.113281 " fill-opacity="1" fill-rule="nonzero"/></g><g clip-path="url(#ad6a6030b6)"><path fill="#c6302c" d="M 694.292969 734.714844 C 691.054688 718.234375 670.761719 717.957031 665.757812 733.367188 C 660.753906 717.957031 640.460938 718.234375 637.222656 734.714844 C 634.285156 749.671875 665.757812 773.265625 665.757812 773.265625 C 665.757812 773.265625 697.230469 749.671875 694.292969 734.714844 Z M 694.292969 734.714844 " fill-opacity="1" fill-rule="nonzero"/></g><g clip-path="url(#7a1fc513eb)"><path fill="#c6302c" d="M 805.820312 734.714844 C 802.582031 718.234375 782.289062 717.957031 777.285156 733.367188 C 772.28125 717.957031 751.988281 718.234375 748.75 734.714844 C 745.8125 749.671875 777.285156 773.265625 777.285156 773.265625 C 777.285156 773.265625 808.757812 749.671875 805.820312 734.714844 Z M 805.820312 734.714844 " fill-opacity="1" fill-rule="nonzero"/></g><g clip-path="url(#a87a777df6)"><path fill="#c6302c" d="M 917.140625 734.714844 C 913.902344 718.234375 893.609375 717.957031 888.605469 733.367188 C 883.601562 717.957031 863.308594 718.234375 860.070312 734.714844 C 857.132812 749.671875 888.605469 773.265625 888.605469 773.265625 C 888.605469 773.265625 920.078125 749.671875 917.140625 734.714844 Z M 917.140625 734.714844 " fill-opacity="1" fill-rule="nonzero"/></g><g clip-path="url(#916efac0bf)"><path fill="#c6302c" d="M 1028.457031 734.714844 C 1025.21875 718.234375 1004.925781 717.957031 999.921875 733.367188 C 994.917969 717.957031 974.625 718.234375 971.390625 734.714844 C 968.453125 749.671875 999.921875 773.265625 999.921875 773.265625 C 999.921875 773.265625 1031.394531 749.671875 1028.457031 734.714844 Z M 1028.457031 734.714844 " fill-opacity="1" fill-rule="nonzero"/></g><g clip-path="url(#85945aa8f0)"><path fill="#c6302c" d="M 1147.683594 734.714844 C 1144.445312 718.234375 1124.152344 717.957031 1119.148438 733.367188 C 1114.144531 717.957031 1093.851562 718.234375 1090.613281 734.714844 C 1087.675781 749.671875 1119.148438 773.265625 1119.148438 773.265625 C 1119.148438 773.265625 1150.621094 749.671875 1147.683594 734.714844 Z M 1147.683594 734.714844 " fill-opacity="1" fill-rule="nonzero"/></g><g clip-path="url(#63d7487c5b)"><path fill="#c6302c" d="M 694.292969 818.828125 C 691.054688 802.347656 670.761719 802.070312 665.757812 817.480469 C 660.753906 802.070312 640.460938 802.347656 637.222656 818.828125 C 634.285156 833.785156 665.757812 857.378906 665.757812 857.378906 C 665.757812 857.378906 697.230469 833.785156 694.292969 818.828125 Z M 694.292969 818.828125 " fill-opacity="1" fill-rule="nonzero"/></g><g clip-path="url(#c7afaa0978)"><path fill="#c6302c" d="M 805.820312 818.828125 C 802.582031 802.347656 782.289062 802.070312 777.285156 817.480469 C 772.28125 802.070312 751.988281 802.347656 748.75 818.828125 C 745.8125 833.785156 777.285156 857.378906 777.285156 857.378906 C 777.285156 857.378906 808.757812 833.785156 805.820312 818.828125 Z M 805.820312 818.828125 " fill-opacity="1" fill-rule="nonzero"/></g><g clip-path="url(#03d4398ca9)"><path fill="#c6302c" d="M 917.140625 818.828125 C 913.902344 802.347656 893.609375 802.070312 888.605469 817.480469 C 883.601562 802.070312 863.308594 802.347656 860.070312 818.828125 C 857.132812 833.785156 888.605469 857.378906 888.605469 857.378906 C 888.605469 857.378906 920.078125 833.785156 917.140625 818.828125 Z M 917.140625 818.828125 " fill-opacity="1" fill-rule="nonzero"/></g><g clip-path="url(#7b5b34c4a5)"><path fill="#c6302c" d="M 1028.457031 818.828125 C 1025.21875 802.347656 1004.925781 802.070312 999.921875 817.480469 C 994.917969 802.070312 974.625 802.347656 971.390625 818.828125 C 968.453125 833.785156 999.921875 857.378906 999.921875 857.378906 C 999.921875 857.378906 1031.394531 833.785156 1028.457031 818.828125 Z M 1028.457031 818.828125 " fill-opacity="1" fill-rule="nonzero"/></g><g clip-path="url(#057207b222)"><path fill="#c6302c" d="M 1147.683594 818.828125 C 1144.445312 802.347656 1124.152344 802.070312 1119.148438 817.480469 C 1114.144531 802.070312 1093.851562 802.347656 1090.613281 818.828125 C 1087.675781 833.785156 1119.148438 857.378906 1119.148438 857.378906 C 1119.148438 857.378906 1150.621094 833.785156 1147.683594 818.828125 Z M 1147.683594 818.828125 " fill-opacity="1" fill-rule="nonzero"/></g></svg>